<?xml version="1.0" encoding="UTF-8" standalone="no"?>
<svg
   width="16"
   height="16"
   version="1.1"
   id="svg8"
   xmlns="http://www.w3.org/2000/svg"
   xmlns:svg="http://www.w3.org/2000/svg">
  <defs
     id="defs12" />
  <filter
     id="a"
     height="1"
     width="1"
     x="0"
     y="0">
    <feColorMatrix
       in="SourceGraphic"
       type="matrix"
       values="0 0 0 0 1 0 0 0 0 1 0 0 0 0 1 0 0 0 1 0"
       id="feColorMatrix930" />
  </filter>
  <mask
     id="b">
    <g
       filter="url(#a)"
       id="g935">
      <path
         d="m 0 0 h 16 v 16 h -16 z"
         fill-opacity="0.3"
         id="path933" />
    </g>
  </mask>
  <clipPath
     id="c">
    <path
       d="m 0 0 h 1024 v 800 h -1024 z"
       id="path938" />
  </clipPath>
  <mask
     id="d">
    <g
       filter="url(#a)"
       id="g943">
      <path
         d="m 0 0 h 16 v 16 h -16 z"
         fill-opacity="0.05"
         id="path941" />
    </g>
  </mask>
  <clipPath
     id="e">
    <path
       d="m 0 0 h 1024 v 800 h -1024 z"
       id="path946" />
  </clipPath>
  <mask
     id="f">
    <g
       filter="url(#a)"
       id="g951">
      <path
         d="m 0 0 h 16 v 16 h -16 z"
         fill-opacity="0.05"
         id="path949" />
    </g>
  </mask>
  <clipPath
     id="g">
    <path
       d="m 0 0 h 1024 v 800 h -1024 z"
       id="path954" />
  </clipPath>
  <mask
     id="h">
    <g
       filter="url(#a)"
       id="g959">
      <path
         d="m 0 0 h 16 v 16 h -16 z"
         fill-opacity="0.05"
         id="path957" />
    </g>
  </mask>
  <clipPath
     id="i">
    <path
       d="m 0 0 h 1024 v 800 h -1024 z"
       id="path962" />
  </clipPath>
  <mask
     id="j">
    <g
       filter="url(#a)"
       id="g967">
      <path
         d="m 0 0 h 16 v 16 h -16 z"
         fill-opacity="0.05"
         id="path965" />
    </g>
  </mask>
  <clipPath
     id="k">
    <path
       d="m 0 0 h 1024 v 800 h -1024 z"
       id="path970" />
  </clipPath>
  <mask
     id="l">
    <g
       filter="url(#a)"
       id="g975">
      <path
         d="m 0 0 h 16 v 16 h -16 z"
         fill-opacity="0.05"
         id="path973" />
    </g>
  </mask>
  <clipPath
     id="m">
    <path
       d="m 0 0 h 1024 v 800 h -1024 z"
       id="path978" />
  </clipPath>
  <mask
     id="n">
    <g
       filter="url(#a)"
       id="g983">
      <path
         d="m 0 0 h 16 v 16 h -16 z"
         fill-opacity="0.05"
         id="path981" />
    </g>
  </mask>
  <clipPath
     id="o">
    <path
       d="m 0 0 h 1024 v 800 h -1024 z"
       id="path986" />
  </clipPath>
  <mask
     id="p">
    <g
       filter="url(#a)"
       id="g991">
      <path
         d="m 0 0 h 16 v 16 h -16 z"
         fill-opacity="0.3"
         id="path989" />
    </g>
  </mask>
  <clipPath
     id="q">
    <path
       d="m 0 0 h 1024 v 800 h -1024 z"
       id="path994" />
  </clipPath>
  <mask
     id="r">
    <g
       filter="url(#a)"
       id="g999">
      <path
         d="m 0 0 h 16 v 16 h -16 z"
         fill-opacity="0.5"
         id="path997" />
    </g>
  </mask>
  <clipPath
     id="s">
    <path
       d="m 0 0 h 1024 v 800 h -1024 z"
       id="path1002" />
  </clipPath>
  <mask
     id="t">
    <g
       filter="url(#a)"
       id="g1007">
      <path
         d="m 0 0 h 16 v 16 h -16 z"
         fill-opacity="0.4"
         id="path1005" />
    </g>
  </mask>
  <clipPath
     id="u">
    <path
       d="m 0 0 h 1024 v 800 h -1024 z"
       id="path1010" />
  </clipPath>
  <mask
     id="v">
    <g
       filter="url(#a)"
       id="g1015">
      <path
         d="m 0 0 h 16 v 16 h -16 z"
         fill-opacity="0.4"
         id="path1013" />
    </g>
  </mask>
  <clipPath
     id="w">
    <path
       d="m 0 0 h 1024 v 800 h -1024 z"
       id="path1018" />
  </clipPath>
  <mask
     id="x">
    <g
       filter="url(#a)"
       id="g1023">
      <path
         d="m 0 0 h 16 v 16 h -16 z"
         fill-opacity="0.5"
         id="path1021" />
    </g>
  </mask>
  <clipPath
     id="y">
    <path
       d="m 0 0 h 1024 v 800 h -1024 z"
       id="path1026" />
  </clipPath>
  <mask
     id="z">
    <g
       filter="url(#a)"
       id="g1031">
      <path
         d="m 0 0 h 16 v 16 h -16 z"
         fill-opacity="0.5"
         id="path1029" />
    </g>
  </mask>
  <clipPath
     id="A">
    <path
       d="m 0 0 h 1024 v 800 h -1024 z"
       id="path1034" />
  </clipPath>
  <path
     id="path1037"
     d="M 2 1 L 2 7 L 10 8 L 2 9 L 2 15 L 10.037109 10.980469 C 10.238017 9.5913042 11.454431 8.5 12.892578 8.5 L 13.111328 8.5 C 13.568679 8.5 14.003455 8.6096202 14.390625 8.8046875 L 16 8 L 2 1 z "
     style="fill:#2e3436;fill-opacity:1" />
  <g
     clip-path="url(#c)"
     mask="url(#b)"
     transform="translate(-739,-664)"
     id="g1041">
    <path
       d="m 562.46094,212.05859 h 10.44922 c -1.1836,0.49219 -1.29688,2.46094 0,3 h -10.44922 z m 0,0"
       fill="#2e3436"
       id="path1039" />
  </g>
  <g
     clip-path="url(#e)"
     mask="url(#d)"
     transform="translate(-739,-664)"
     id="g1045">
    <path
       d="m 16,632 h 1 v 1 h -1 z m 0,0"
       fill="#2e3436"
       fill-rule="evenodd"
       id="path1043" />
  </g>
  <g
     clip-path="url(#g)"
     mask="url(#f)"
     transform="translate(-739,-664)"
     id="g1049">
    <path
       d="m 17,631 h 1 v 1 h -1 z m 0,0"
       fill="#2e3436"
       fill-rule="evenodd"
       id="path1047" />
  </g>
  <g
     clip-path="url(#i)"
     mask="url(#h)"
     transform="translate(-739,-664)"
     id="g1053">
    <path
       d="m 18,634 h 1 v 1 h -1 z m 0,0"
       fill="#2e3436"
       fill-rule="evenodd"
       id="path1051" />
  </g>
  <g
     clip-path="url(#k)"
     mask="url(#j)"
     transform="translate(-739,-664)"
     id="g1057">
    <path
       d="m 16,634 h 1 v 1 h -1 z m 0,0"
       fill="#2e3436"
       fill-rule="evenodd"
       id="path1055" />
  </g>
  <g
     clip-path="url(#m)"
     mask="url(#l)"
     transform="translate(-739,-664)"
     id="g1061">
    <path
       d="m 17,635 h 1 v 1 h -1 z m 0,0"
       fill="#2e3436"
       fill-rule="evenodd"
       id="path1059" />
  </g>
  <g
     clip-path="url(#o)"
     mask="url(#n)"
     transform="translate(-739,-664)"
     id="g1065">
    <path
       d="m 19,635 h 1 v 1 h -1 z m 0,0"
       fill="#2e3436"
       fill-rule="evenodd"
       id="path1063" />
  </g>
  <g
     clip-path="url(#q)"
     mask="url(#p)"
     transform="translate(-739,-664)"
     id="g1069">
    <path
       d="m 136,660 v 7 h 7 v -7 z m 0,0"
       fill="#2e3436"
       id="path1067" />
  </g>
  <g
     clip-path="url(#s)"
     mask="url(#r)"
     transform="translate(-739,-664)"
     id="g1073">
    <path
       d="m 199,642 h 3 v 12 h -3 z m 0,0"
       fill="#2e3436"
       id="path1071" />
  </g>
  <g
     clip-path="url(#u)"
     mask="url(#t)"
     transform="translate(-739,-664)"
     id="g1077">
    <path
       d="m 209.5,144.16016 c 0.27734,0 0.5,0.22265 0.5,0.5 v 1 c 0,0.27734 -0.22266,0.5 -0.5,0.5 -0.27734,0 -0.5,-0.22266 -0.5,-0.5 v -1 c 0,-0.27735 0.22266,-0.5 0.5,-0.5 z m 0,0"
       fill="#2e3436"
       id="path1075" />
  </g>
  <g
     clip-path="url(#w)"
     mask="url(#v)"
     transform="translate(-739,-664)"
     id="g1081">
    <path
       d="m 206.5,144.16016 c 0.27734,0 0.5,0.22265 0.5,0.5 v 1 c 0,0.27734 -0.22266,0.5 -0.5,0.5 -0.27734,0 -0.5,-0.22266 -0.5,-0.5 v -1 c 0,-0.27735 0.22266,-0.5 0.5,-0.5 z m 0,0"
       fill="#2e3436"
       id="path1079" />
  </g>
  <g
     clip-path="url(#y)"
     mask="url(#x)"
     transform="translate(-739,-664)"
     id="g1085">
    <path
       d="m 229.5,143.16016 c -0.54688,0 -1,0.45703 -1,1 0,0.54687 0.45312,1 1,1 0.54687,0 1,-0.45313 1,-1 0,-0.54297 -0.45313,-1 -1,-1 z m 0,0"
       fill="#2e3436"
       id="path1083" />
  </g>
  <g
     clip-path="url(#A)"
     mask="url(#z)"
     transform="translate(-739,-664)"
     id="g1089">
    <path
       d="m 226.45312,143.16016 c -0.51953,0 -0.95312,0.43359 -0.95312,0.95312 v 0.0937 c 0,0.51953 0.43359,0.95313 0.95312,0.95313 h 0.0937 c 0.51954,0 0.95313,-0.4336 0.95313,-0.95313 v -0.0937 c 0,-0.51953 -0.43359,-0.95312 -0.95313,-0.95312 z m 0,0"
       fill="#2e3436"
       id="path1087" />
  </g>
  <path
     style="color:#000000;fill:#2e3436"
     d="m 12.892578,9.5 c -1.033259,0 -1.882042,0.847604 -1.884765,1.880859 L 11,13.996094 12,14 12.0078,11.382813 C 12.009114,10.889063 12.398827,10.5 12.892578,10.5 h 0.21875 C 13.607612,10.5 14,10.892388 14,11.388672 v 2.609375 h 1 V 11.388672 C 15,10.351949 14.148051,9.5 13.111328,9.5 Z"
     id="path3218" />
  <rect
     style="fill:#2e3436;fill-opacity:1;stroke:none;stroke-width:2;stroke-linecap:round;stroke-linejoin:round;stroke-dashoffset:26.4;stroke-opacity:1"
     id="rect10418"
     width="5.999999"
     height="3.9999998"
     x="10"
     y="12" />
</svg>
